<svg width="49" height="48" viewBox="0 0 49 48" fill="none" xmlns="http://www.w3.org/2000/svg">
<path fill-rule="evenodd" clip-rule="evenodd" d="M28.9127 2.25H21.0834C16.9807 2.24994 13.6737 2.2499 11.0728 2.59958C8.37247 2.96262 6.09885 3.73931 4.2931 5.54506C2.48735 7.35081 1.71067 9.62443 1.34762 12.3248C0.997942 14.9257 0.99799 18.2326 0.998048 22.3353V25.6647C0.99799 29.7674 0.997942 33.0744 1.34762 35.6753C1.71067 38.3756 2.48735 40.6492 4.2931 42.455C6.09885 44.2607 8.37248 45.0374 11.0728 45.4005C13.6737 45.7502 16.9806 45.7501 21.0834 45.75H28.9127C33.0154 45.7501 36.3224 45.7502 38.9233 45.4005C41.6236 45.0374 43.8973 44.2607 45.703 42.455C47.5088 40.6492 48.2854 38.3756 48.6485 35.6753C48.9982 33.0744 48.9981 29.7674 48.9981 25.6646V22.3354C48.9981 18.2327 48.9982 14.9257 48.6485 12.3248C48.2854 9.62443 47.5088 7.35081 45.703 5.54506C43.8973 3.73931 41.6236 2.96262 38.9233 2.59958C36.3224 2.2499 33.0155 2.24994 28.9127 2.25ZM19.748 30.1973C19.748 31.3953 21.0833 32.1099 22.0801 31.4453L31.3759 25.2481C32.2665 24.6544 32.2665 23.3457 31.3759 22.752L22.0801 16.5547C21.0833 15.8902 19.748 16.6048 19.748 17.8028V30.1973Z" fill="white"/>
</svg>
