<svg width="77" height="16" viewBox="0 0 77 16" fill="none" xmlns="http://www.w3.org/2000/svg">
<g clip-path="url(#clip0_1_384)">
<path d="M39.6185 4.27961C39.591 4.84462 39.5427 5.70592 39.5083 6.56721C39.4876 7.06332 39.5565 7.08399 40.0388 6.95997C42.2713 6.39495 44.3453 6.67746 46.061 8.31048C47.4115 9.59209 47.3771 11.17 46.0679 12.4998C45.3651 13.2164 44.4969 13.6919 43.5805 14.0708C41.9475 14.7461 40.2111 15.0286 38.4816 15.3387C38.1095 15.4076 37.7581 15.2698 37.9511 14.7254C38.2198 13.9675 38.0751 13.2095 37.9579 12.4447C37.5928 10.1709 37.5238 7.87639 37.5928 5.58189C37.6341 4.19692 37.6961 2.80507 37.765 1.4201C37.8132 0.448555 37.9304 0.365871 38.8813 0.600144C39.5358 0.758623 39.6254 0.875759 39.6254 1.53724C39.6185 2.35719 39.6185 3.17026 39.6185 4.27961ZM39.5427 10.1158C39.6668 10.9288 39.7908 11.7419 39.9286 12.555C39.9699 12.7823 40.0664 12.9615 40.3696 12.8995C41.7339 12.617 42.981 12.0451 44.18 11.356C44.4349 11.2044 44.6003 10.9702 44.5383 10.6325C44.3109 9.43361 43.3669 8.62744 42.1473 8.67567C41.5823 8.69634 41.0173 8.84793 40.4592 8.97196C39.5703 9.17867 39.5772 9.18556 39.5427 10.1158Z" fill="white"/>
<path d="M64.2846 13.244C64.1399 13.3818 64.0366 13.4782 63.9263 13.5816C62.9479 14.4911 61.8523 14.6978 60.6672 14.0846C60.0746 13.7814 59.5165 13.368 59.0342 12.8994C58.1522 12.045 58.0282 10.9288 58.1729 9.76429C58.3245 8.6136 58.7999 7.59382 59.4958 6.66362C60.2882 5.60939 61.3907 5.34756 62.6172 5.49226C63.7954 5.63696 64.5465 6.32599 64.9392 7.42845C64.9875 7.55937 65.0288 7.70407 65.1253 7.79365C65.6489 8.33799 65.642 9.02013 65.6352 9.70228C65.6283 10.1571 65.58 10.6256 65.6352 11.0735C65.7385 11.9141 66.2139 12.5549 66.8548 13.0855C67.0752 13.2715 67.3026 13.4438 67.5231 13.6229C67.6816 13.7539 67.716 13.8986 67.5645 14.0639C67.3853 14.2569 67.2131 14.4567 67.0339 14.6496C66.9926 14.6978 66.9237 14.7599 66.8685 14.7599C66.5516 14.7461 66.1933 14.7943 65.9177 14.6703C65.5249 14.4842 65.1735 14.188 64.8359 13.9054C64.636 13.747 64.4914 13.4989 64.2846 13.244ZM63.0719 9.15105C63.0444 8.8272 63.0099 8.33799 62.9686 7.84877C62.9479 7.58693 62.7963 7.43535 62.5276 7.40778C62.0246 7.35955 61.5974 7.52492 61.246 7.86944C60.5914 8.51024 60.2124 9.28886 60.1022 10.1984C60.0264 10.8254 60.1435 11.3698 60.6948 11.735C60.9152 11.8797 61.1426 12.0175 61.3838 12.1071C61.935 12.3138 62.2451 12.1897 62.5207 11.673C62.9135 10.9357 63.0857 10.1502 63.0719 9.15105Z" fill="white"/>
<path d="M48.2034 10.6251C48.2861 9.93611 48.4515 9.30908 48.8167 8.74407C50.0225 6.91123 51.7037 5.85011 53.9018 5.68474C54.7217 5.62273 55.5003 5.81566 56.2169 6.2153C56.9129 6.60805 57.285 7.41423 57.1678 8.20662C57.092 8.68895 56.8095 9.0128 56.3823 9.2264C55.1489 9.84653 53.8467 10.2462 52.4961 10.4873C51.752 10.6182 51.0009 10.7147 50.2499 10.8318C50.1534 10.8456 49.9949 10.8939 49.988 10.9421C49.9812 11.0386 50.0225 11.1832 50.0983 11.2384C50.3601 11.4382 50.622 11.6518 50.9182 11.7827C52.2343 12.3546 53.6399 12.6027 55.0594 12.7405C55.5968 12.7956 55.6244 12.8025 55.776 13.2986C55.8035 13.3882 55.8449 13.4709 55.8862 13.5466C56.1274 14.0083 55.9482 14.4631 55.4245 14.5251C54.9629 14.5802 54.4875 14.5251 54.0258 14.4769C52.8407 14.3597 51.6486 14.2564 50.5117 13.8636C50.2499 13.774 50.0018 13.6638 49.7538 13.5398C49.2025 13.2573 48.7822 12.8645 48.6306 12.2237C48.5204 11.6931 48.355 11.1626 48.2034 10.6251ZM50.7529 9.0128C51.0354 8.99213 51.249 8.98524 51.4557 8.95767C52.4272 8.84054 53.385 8.66828 54.267 8.23418C54.515 8.11016 54.7769 7.98613 54.8664 7.68295C53.4263 7.08349 51.6142 7.6485 50.7529 9.0128Z" fill="white"/>
<path d="M68.3301 9.24077C68.4541 8.31057 68.5437 7.37348 68.7228 6.45706C68.8055 6.05742 69.0673 5.69223 69.2741 5.32704C69.3981 5.10654 69.6186 5.05142 69.8735 5.09276C70.9415 5.28569 71.1138 5.4924 70.7968 6.53285C70.2387 8.3588 70.2249 10.171 70.8657 11.9763C70.9346 12.1623 71.0035 12.3414 71.0931 12.5137C71.6857 13.6575 72.8846 13.8435 73.7804 12.9133C73.9733 12.7135 74.1387 12.4517 74.2282 12.1899C74.6486 10.9703 74.8484 9.7231 74.7312 8.42771C74.6899 8.0005 74.745 7.60086 75.0206 7.25634C75.2136 7.02207 75.4341 6.95317 75.7235 7.07719C75.9646 7.18055 76.2333 7.22878 76.4607 7.35281C76.5848 7.42171 76.7432 7.58708 76.7501 7.71111C76.8466 9.81267 76.5848 11.866 75.7097 13.7953C75.1722 14.9805 73.8837 15.6075 72.6572 15.4972C70.1009 15.263 69.1914 13.6093 68.7297 11.8936C68.6126 11.4595 68.5023 11.0254 68.461 10.5775C68.4128 10.1365 68.4541 9.68176 68.4541 9.23388C68.4128 9.24766 68.3714 9.24077 68.3301 9.24077Z" fill="white"/>
<path d="M28.4922 4.54886C28.947 4.41794 29.3535 4.31459 29.7462 4.17678C30.5386 3.91495 31.3241 3.61177 32.1854 3.62555C32.4748 3.63244 32.7436 3.63244 32.7987 4.0183C32.8814 4.62466 32.8056 4.82448 32.3577 4.94161C31.3724 5.19656 30.3664 5.40327 29.3879 5.68577C28.4095 5.96139 28.4853 5.83736 28.5956 6.86403C28.7885 8.73821 28.9745 10.6055 29.1537 12.4797C29.2019 12.9551 29.2364 13.4374 29.2295 13.9198C29.2226 14.3263 29.1192 14.4021 28.7196 14.3814C28.4095 14.3676 28.0994 14.3538 27.7963 14.3125C27.3622 14.2505 27.2037 14.0782 27.1624 13.6372C26.9556 11.3979 26.7489 9.15853 26.5491 6.91915C26.5009 6.41615 26.5009 6.42304 26.0185 6.49195C25.3364 6.58841 24.6543 6.66421 23.9721 6.73311C23.7447 6.75378 23.5242 6.70555 23.4484 6.44372C23.3658 6.16121 23.5449 5.98895 23.7723 5.91316C24.4338 5.69266 25.1021 5.48595 25.7774 5.29991C26.4389 5.11387 26.432 5.12076 26.4389 4.4524C26.4458 3.71513 26.4664 2.98474 26.4802 2.24747C26.4802 2.10967 26.4802 1.97186 26.4526 1.83405C26.3768 1.46886 26.4733 1.17257 26.7696 0.952085C27.0866 0.717812 27.4586 0.662689 27.81 0.814277C27.9341 0.8694 28.0512 1.06922 28.0719 1.21392C28.2166 2.15101 28.3406 3.09499 28.4646 4.03208C28.4784 4.17678 28.4784 4.32148 28.4922 4.54886Z" fill="white"/>
<path d="M12.3399 12.2795C13.0565 12.6033 13.7869 12.562 14.5173 12.4793C15.3028 12.3897 16.0814 12.245 16.86 12.1141C17.3561 12.0314 17.4664 12.1072 17.5559 12.6033C17.6593 13.2097 17.3975 13.7334 16.8049 13.8987C15.1788 14.3466 13.532 14.5878 11.8507 14.1261C11.2168 13.9539 10.762 13.5887 10.5002 12.9961C10.39 12.7412 10.2315 12.6447 9.96964 12.6585C9.86628 12.6654 9.76293 12.6516 9.65957 12.6447C8.96364 12.5758 8.80516 12.3829 8.90163 11.7007C9.01876 10.8325 9.01876 10.8325 9.88695 10.8807C10.1488 10.8945 10.2935 10.7774 10.3968 10.5638C11.2788 8.74471 12.7671 7.72493 14.7033 7.29773C14.9445 7.24261 15.2063 7.23572 15.4544 7.27706C16.2192 7.40798 16.4397 7.70426 16.4397 8.46909C16.4397 9.50265 16.0263 10.3433 15.1788 10.8945C14.538 11.308 13.8214 11.6042 13.1392 11.9419C12.8774 12.0866 12.6087 12.1761 12.3399 12.2795ZM14.7378 8.66891C14.7033 8.67581 14.662 8.67581 14.6138 8.68959C13.7731 8.93075 13.0221 9.33728 12.4433 10.0057C12.333 10.1297 12.2504 10.2951 12.209 10.4535C12.1539 10.6603 12.2848 10.7774 12.4984 10.7774C13.2632 10.7567 14.7447 9.71625 14.9996 9.01343C15.0961 8.75849 14.9927 8.66202 14.7378 8.66891Z" fill="white"/>
<path d="M22.1529 12.1969C21.9324 11.7972 21.643 11.6319 21.2985 11.5492C20.7541 11.4114 20.2029 11.3011 19.6655 11.1427C18.6663 10.8464 18.3838 10.3227 18.6595 9.31666C18.9695 8.16596 19.8446 7.65608 20.9126 7.45625C21.4776 7.3529 22.0771 7.38735 22.6559 7.42869C23.1038 7.46314 23.3725 7.81455 23.3863 8.24865C23.4 8.73787 23.1795 8.97214 22.6903 8.97903C22.1873 8.98592 21.6843 8.97214 21.1813 8.9997C20.9677 9.01348 20.7541 9.08927 20.5543 9.17196C20.4647 9.20641 20.3683 9.33733 20.3683 9.42001C20.3683 9.48892 20.5061 9.59227 20.5957 9.61294C21.1193 9.74386 21.6568 9.81966 22.1667 9.98502C22.7041 10.1642 23.2416 10.3847 23.7446 10.6466C24.4887 11.0462 24.6265 11.7559 24.537 12.5138C24.4543 13.2098 24.0753 13.6852 23.3863 13.9195C22.0289 14.3674 20.6508 14.4983 19.2451 14.2089C18.5561 14.0711 18.3907 13.7266 18.687 13.0926C19.0591 12.3071 19.3416 12.1624 20.2098 12.2658C20.8437 12.3623 21.4707 12.3485 22.1529 12.1969Z" fill="white"/>
<path d="M3.98194 14.3671C3.34113 14.2982 2.65209 14.2637 1.98373 14.1397C0.330036 13.8365 -0.269427 12.9132 0.109544 11.2664C0.722788 8.60672 2.45227 7.06327 5.04995 6.42936C5.24288 6.38112 5.46337 6.38112 5.66319 6.40179C6.28333 6.45003 6.51071 6.65674 6.62095 7.2562C6.64163 7.38023 6.57272 7.58694 6.47626 7.64206C6.23509 7.78676 5.96637 7.91768 5.69764 7.95902C4.74677 8.09683 3.87858 8.4069 3.08619 8.95124C2.39026 9.42667 1.96306 10.0881 1.76324 10.8943C1.63921 11.3904 1.72878 11.5971 2.15599 11.8865C2.85192 12.3551 3.60986 12.5549 4.44359 12.3964C4.96037 12.2999 5.44959 12.4171 5.90435 12.6582C6.20753 12.8167 6.37979 13.2577 6.32467 13.6436C6.26955 14.0019 6.02149 14.1535 5.70453 14.1879C5.1533 14.2637 4.59518 14.3119 3.98194 14.3671Z" fill="white"/>
<path d="M10.1068 7.04967C9.71403 6.8843 9.32817 6.78783 9.0181 6.57423C8.61846 6.29861 8.28083 5.91964 7.90875 5.60269C7.74338 5.46488 7.55045 5.36152 7.38508 5.23061C7.27484 5.14103 7.11636 5.05146 7.08191 4.93432C7.013 4.72761 7.02678 4.50711 7.26106 4.36242C7.63314 4.12814 8.03278 4.03168 8.43931 4.20394C8.74249 4.33486 9.03877 4.50022 9.29372 4.70694C9.7347 5.05835 10.1412 5.4511 10.5547 5.82318C10.5615 5.83007 10.5753 5.83696 10.5822 5.84385C10.782 6.10568 10.9336 6.41575 10.7545 6.69826C10.6442 6.87052 10.3479 6.92564 10.1068 7.04967Z" fill="white"/>
</g>
<defs>
<clipPath id="clip0_1_384">
<rect width="77" height="16" fill="white"/>
</clipPath>
</defs>
</svg>
