<svg width="37" height="37" viewBox="0 0 37 37" fill="none" xmlns="http://www.w3.org/2000/svg">
<g clip-path="url(#clip0_1_398)">
<path d="M18.5 3.33347C23.4395 3.33347 24.0245 3.35197 25.9752 3.441C28.0807 3.53697 30.0347 3.959 31.5378 5.46212C33.041 6.96525 33.463 8.91932 33.559 11.0248C33.648 12.9754 33.6665 13.5605 33.6665 18.5C33.6665 23.4395 33.648 24.0245 33.559 25.9752C33.463 28.0807 33.041 30.0347 31.5378 31.5378C30.0347 33.041 28.0807 33.463 25.9752 33.559C24.0245 33.648 23.4395 33.6665 18.5 33.6665C13.5605 33.6665 12.9754 33.648 11.0248 33.559C8.91932 33.463 6.96525 33.041 5.46212 31.5378C3.959 30.0347 3.53697 28.0807 3.441 25.9752C3.35197 24.0245 3.33347 23.4395 3.33347 18.5C3.33347 13.5605 3.35197 12.9754 3.441 11.0248C3.53697 8.91932 3.959 6.96525 5.46212 5.46212C6.96525 3.959 8.91932 3.53697 11.0248 3.441C12.9754 3.35197 13.5605 3.33347 18.5 3.33347ZM18.5 0C13.4761 0 12.8459 0.0208125 10.8722 0.111C7.86597 0.248595 5.2251 0.985125 3.10453 3.10453C0.985125 5.22393 0.248595 7.8648 0.111 10.8722C0.0208125 12.8459 0 13.4761 0 18.5C0 23.524 0.0208125 24.154 0.111 26.1278C0.248595 29.134 0.985125 31.775 3.10453 33.8955C5.22393 36.0148 7.8648 36.7515 10.8722 36.889C12.8459 36.9792 13.4761 37 18.5 37C23.524 37 24.154 36.9792 26.1278 36.889C29.134 36.7515 31.775 36.0148 33.8955 33.8955C36.0148 31.776 36.7515 29.1352 36.889 26.1278C36.9792 24.154 37 23.524 37 18.5C37 13.4761 36.9792 12.8459 36.889 10.8722C36.7515 7.86597 36.0148 5.2251 33.8955 3.10453C31.776 0.985125 29.1352 0.248595 26.1278 0.111C24.154 0.0208125 23.524 0 18.5 0Z" fill="white"/>
<path d="M18.4213 8.4541C12.7445 8.4541 8.14352 13.0563 8.14352 18.7319C8.14352 24.4087 12.7457 29.0097 18.4213 29.0097C24.0969 29.0097 28.699 24.4075 28.699 18.7319C28.699 13.0551 24.0981 8.4541 18.4213 8.4541ZM18.4213 25.4032C14.736 25.4032 11.75 22.4159 11.75 18.7319C11.75 15.0466 14.7373 12.0606 18.4213 12.0606C22.1067 12.0606 25.0926 15.0479 25.0926 18.7319C25.0926 22.4171 22.1067 25.4032 18.4213 25.4032Z" fill="white"/>
<path d="M28.4193 10.9265C29.668 10.9265 30.6804 9.9142 30.6804 8.66541C30.6804 7.41664 29.668 6.4043 28.4193 6.4043C27.1705 6.4043 26.1582 7.41664 26.1582 8.66541C26.1582 9.9142 27.1705 10.9265 28.4193 10.9265Z" fill="white"/>
</g>
<defs>
<clipPath id="clip0_1_398">
<rect width="37" height="37" fill="white"/>
</clipPath>
</defs>
</svg>
